<svg
   xmlns="http://www.w3.org/2000/svg"
   width="61.879mm"
   height="65.937mm"
   viewBox="0 0 233.87339 249.2107"
   fill="none">
  <path
     d="M 232.93104,55.172933 C 229.3286,28.396286 205.99099,7.2944718 178.32631,3.2054851 173.65878,2.5145505 155.9748,0 115.00994,0 h -0.30596 C 73.727623,0 64.936622,2.5145505 60.269098,3.2054851 33.374594,7.1811768 8.8138131,26.142272 2.8548688,53.235991 -0.01130987,66.579112 -0.31718685,81.371867 0.21526584,94.941194 0.9742947,114.40071 1.1215667,133.82611 2.8888573,153.20626 c 1.2217762,12.87345 3.3531405,25.64415 6.3780974,38.21664 5.6644043,23.21991 28.5938523,42.54332 51.0588873,50.42681 24.051893,8.22127 49.918038,9.58618 74.701848,3.94175 2.72636,-0.63415 5.41899,-1.37028 8.07749,-2.20878 6.02668,-1.91394 13.08471,-4.05485 18.27327,-7.81524 0.0713,-0.0529 0.12959,-0.12116 0.17061,-0.19937 0.0414,-0.0786 0.0644,-0.16525 0.0675,-0.25381 v -18.77975 c -0.002,-0.0828 -0.0211,-0.1641 -0.0579,-0.23847 -0.0368,-0.074 -0.0897,-0.13918 -0.15489,-0.19017 -0.0652,-0.051 -0.1411,-0.0867 -0.22199,-0.10467 -0.0805,-0.018 -0.16448,-0.0176 -0.245,7.7e-4 -15.87893,3.7926 -32.15047,5.6935 -48.47606,5.6636 -28.095244,0 -35.651694,-13.33162 -37.815225,-18.88174 -1.739491,-4.79672 -2.844069,-9.80049 -3.285363,-14.88362 -0.0046,-0.0851 0.01112,-0.17061 0.04562,-0.24883 0.03451,-0.0778 0.08703,-0.14684 0.153361,-0.2009 0.06633,-0.0541 0.144158,-0.092 0.22774,-0.11004 0.08358,-0.0184 0.17023,-0.0165 0.253045,0.005 15.614004,3.76653 31.620232,5.66743 47.682812,5.66321 3.86277,0 7.7148,0 11.57795,-0.10198 16.1546,-0.45318 33.18182,-1.27979 49.07609,-4.38342 0.39643,-0.0794 0.79325,-0.14723 1.13295,-0.24921 25.07059,-4.81399 48.92886,-19.92382 51.35349,-58.1857 0.0905,-1.50638 0.31707,-15.7781 0.31707,-17.34123 0.0111,-5.3124 1.71074,-37.684475 -0.24921,-57.574167 z"
     fill="url(#paint0_linear_89_8)" />
  <path
     d="M 193.21223,85.256873 V 151.77924 H 166.85035 V 87.216432 c 0,-13.592332 -5.66437,-20.524221 -17.18595,-20.524221 -12.66565,0 -19.00979,8.200567 -19.00979,24.398108 V 126.42992 H 104.45146 V 91.090319 c 0,-16.197541 -6.355639,-24.398108 -19.02129,-24.398108 -11.453337,0 -17.174446,6.931889 -17.174446,20.524221 V 151.77924 H 41.904959 V 85.256873 c 0,-13.592335 3.470545,-24.390436 10.411253,-32.394698 7.160013,-7.985475 16.55142,-12.085565 28.208726,-12.085565 13.492647,0 23.688432,5.187415 30.485742,15.55151 l 6.55923,11.009742 6.57072,-11.009742 c 6.79732,-10.364095 16.9931,-15.55151 30.46313,-15.55151 11.64618,0 21.03759,4.10009 28.21984,12.085565 6.93342,7.996594 10.3963,18.795082 10.38863,32.394698 z"
     fill="white" />
  <defs>
    <linearGradient
       id="paint0_linear_89_8"
       x1="30.5"
       y1="0"
       x2="30.5"
       y2="65"
       gradientUnits="userSpaceOnUse"
       gradientTransform="scale(3.8340097)">
      <stop
         stop-color="#6364FF" />
      <stop
         offset="1"
         stop-color="#563ACC" />
    </linearGradient>
  </defs>
</svg>
